HIERARCHY
ROOT Hips
{
	OFFSET -3.958830 18.904000 13.208200
	CHANNELS 6 Xposition Yposition Zposition Zrotation Yrotation Xrotation 
	JOINT LHipJoint
	{
		OFFSET 0.000000 0.000000 0.000000
		CHANNELS 3 Zrotation Yrotation Xrotation
		JOINT LeftUpLeg
		{
			OFFSET 1.800000 -1.400000 0.085000
			CHANNELS 3 Zrotation Yrotation Xrotation
			JOINT LeftLeg
			{
				OFFSET 2.215000 -6.000000 0.000000
				CHANNELS 3 Zrotation Yrotation Xrotation
				JOINT LeftFoot
				{
					OFFSET 2.500000 -6.900000 0.000000
					CHANNELS 3 Zrotation Yrotation Xrotation
					JOINT LeftToeBase
					{
						OFFSET 0.200000 -0.500000 1.950000
						CHANNELS 3 Zrotation Yrotation Xrotation
						End Site
						{
							OFFSET 0.000000 0.000000 0.000000
						}
					}
				}
			}
		}
	}
	JOINT RHipJoint
	{
		OFFSET 0.000000 0.000000 0.000000
		CHANNELS 3 Zrotation Yrotation Xrotation
		JOINT RightUpLeg
		{
			OFFSET -1.800000 -1.400000 0.085000
			CHANNELS 3 Zrotation Yrotation Xrotation
			JOINT RightLeg
			{
				OFFSET -2.215000 -6.000000 0.000000
				CHANNELS 3 Zrotation Yrotation Xrotation
				JOINT RightFoot
				{
					OFFSET -2.500000 -6.900000 0.000000
					CHANNELS 3 Zrotation Yrotation Xrotation
					JOINT RightToeBase
					{
						OFFSET -0.200000 -0.500000 1.950000
						CHANNELS 3 Zrotation Yrotation Xrotation
						End Site
						{
							OFFSET 0.000000 0.000000 0.000000
						}
					}
				}
			}
		}
	}
	JOINT LowerBack
	{
		OFFSET 0.000000 0.000000 0.000000
		CHANNELS 3 Zrotation Yrotation Xrotation
		JOINT Spine
		{
			OFFSET -0.087000 1.940000 -0.288900
			CHANNELS 3 Zrotation Yrotation Xrotation
			JOINT Spine1
			{
				OFFSET 0.000000 1.950000 0.060000
				CHANNELS 3 Zrotation Yrotation Xrotation
				JOINT Neck
				{
					OFFSET 0.000000 0.000000 0.000000
					CHANNELS 3 Zrotation Yrotation Xrotation
					JOINT Neck1
					{
						OFFSET 0.000000 1.600000 0.340000
						CHANNELS 3 Zrotation Yrotation Xrotation
						JOINT Head
						{
							OFFSET 0.000000 1.667000 -0.240000
							CHANNELS 3 Zrotation Yrotation Xrotation
							End Site
							{
								OFFSET 0.000000 0.000000 0.000000
							}
						}
					}
				}
				JOINT LeftShoulder
				{
					OFFSET 0.000000 0.000000 0.000000
					CHANNELS 3 Zrotation Yrotation Xrotation
					JOINT LeftArm
					{
						OFFSET 2.700000 1.550000 -0.730000
						CHANNELS 3 Zrotation Yrotation Xrotation
						JOINT LeftForeArm
						{
							OFFSET 5.450000 0.000000 0.000000
							CHANNELS 3 Zrotation Yrotation Xrotation
							JOINT LeftHand
							{
								OFFSET 3.450000 0.000000 0.000000
								CHANNELS 3 Zrotation Yrotation Xrotation
								JOINT LeftHandIndex1
								{
									OFFSET 0.750000 0.000000 0.000000
									CHANNELS 3 Zrotation Yrotation Xrotation
									End Site
									{
										OFFSET 0.000000 0.000000 0.000000
									}
								}
							}
						}
					}
				}
				JOINT RightShoulder
				{
					OFFSET 0.000000 0.000000 0.000000
					CHANNELS 3 Zrotation Yrotation Xrotation
					JOINT RightArm
					{
						OFFSET -2.700000 1.550000 -0.730000
						CHANNELS 3 Zrotation Yrotation Xrotation
						JOINT RightForeArm
						{
							OFFSET -5.450000 0.000000 0.000000
							CHANNELS 3 Zrotation Yrotation Xrotation
							JOINT RightHand
							{
								OFFSET -3.450000 0.000000 0.000000
								CHANNELS 3 Zrotation Yrotation Xrotation
								JOINT RightHandIndex1
								{
									OFFSET -0.750000 0.000000 0.000000
									CHANNELS 3 Zrotation Yrotation Xrotation
									End Site
									{
										OFFSET 0.000000 0.000000 0.000000
									}
								}
							}
						}
					}
				}
			}
		}
	}
}
MOTION
Frames: 10
Frame Time: 0.016667
-1.043620 16.761980 -1.596090 -7.786282 -17.302897 3.873397 -14.819190 13.247711 2.365810 24.797954 -0.248994 -9.919995 2.567426 4.736024 9.440646 -0.349626 4.710311 3.045168 0.002780 -0.103840 -0.172170 18.566672 -11.072468 2.827231 -3.717728 1.071213 -11.661012 8.948685 -4.795326 9.476024 0.148591 -3.693915 3.331742 0.186840 0.656000 -0.001330 -4.361723 -0.574032 -6.920230 19.761513 -1.931589 1.933785 -17.870514 -0.926241 3.439518 12.653129 -6.102260 -6.592364 -9.345403 11.785788 27.416607 -1.831810 6.728110 5.816980 -22.476893 1.617909 0.226884 -52.645723 -1.122806 -1.936391 -6.420747 -12.704757 -0.622949 -4.246652 2.940994 -0.108090 0.513920 -0.530860 0.152120 -3.619844 3.762347 2.680161 -7.899165 9.506378 2.519649 176.289631 67.295788 174.766566 1.920302 -2.439090 -0.354710 0.285230 0.188330 -0.055210 
-1.047930 16.761230 -1.594990 -8.008318 -17.536863 3.882804 -14.827163 13.274952 2.367256 24.925921 -0.266548 -9.681414 2.742268 4.721045 9.413304 -0.349598 4.730280 3.032053 0.005770 -0.102510 -0.164630 18.559691 -11.037343 2.834949 -3.589736 1.038787 -11.498353 9.107052 -4.805085 9.315904 0.142405 -3.691902 3.328333 0.187740 0.644980 -0.003530 -4.339618 -0.673890 -6.934721 19.899994 -2.120974 2.016088 -17.579000 -1.082544 3.339471 12.636644 -6.288475 -6.563098 -9.705171 12.091289 27.662487 -1.749240 6.935230 5.693120 -22.376438 1.803198 0.261770 -52.766583 -0.915293 -1.981479 -6.988019 -13.052181 -0.583185 -4.237306 2.942937 -0.099060 0.505640 -0.525410 0.144340 -3.686384 3.681226 2.467077 -8.906754 9.626847 2.427689 177.962238 68.851351 177.707419 1.941104 -2.436891 -0.355120 0.283180 0.190810 -0.061930 
-1.054600 16.759500 -1.594350 -8.196115 -18.060071 3.723610 -14.837738 13.320236 2.349402 24.931790 -0.275092 -9.117682 2.948384 4.708406 9.456962 -0.346995 4.763588 3.023112 0.015310 -0.095440 -0.149610 18.548088 -11.009130 2.839417 -3.613079 0.982346 -11.250198 9.381464 -4.869755 9.241252 0.126421 -3.719768 3.313937 0.191250 0.635230 0.002930 -4.305614 -0.786962 -6.928473 19.837837 -2.503930 2.060082 -17.115636 -1.400369 3.804025 12.512031 -6.299485 -6.611142 -9.792393 12.528705 28.033560 -1.876220 7.557480 5.591330 -22.076582 1.594289 0.549894 -52.701087 -0.702523 -2.079239 -8.490560 -13.792055 -0.453459 -4.221961 2.961462 -0.088430 0.503900 -0.515220 0.143040 -3.654427 3.736642 2.245131 -10.302302 10.215652 2.280453 -174.554178 72.530531 -171.915060 1.985847 -2.441697 -0.354580 0.277370 0.185860 -0.070640 
-1.064230 16.752710 -1.590590 -8.280133 -18.659377 3.675318 -14.854957 13.356372 2.327644 24.869105 -0.306129 -8.438232 3.026712 4.714262 9.423196 -0.328881 4.796363 3.020993 0.024750 -0.079120 -0.140220 18.532423 -10.966044 2.840048 -3.888617 0.930250 -11.092368 9.986678 -4.985063 9.108475 0.112619 -3.769428 3.297342 0.197970 0.633060 0.004800 -4.260259 -0.918032 -6.906211 19.639289 -2.862521 1.943969 -16.654767 -1.707926 4.473640 12.270115 -6.247434 -6.766918 -9.837753 12.887140 28.063599 -1.799070 8.087240 5.592850 -21.118891 1.602178 0.730945 -52.768179 -0.780573 -2.026896 -10.860215 -14.523930 -0.194256 -4.213302 2.987302 -0.095330 0.508400 -0.511330 0.145730 -4.009441 3.466157 2.324767 -12.095187 10.245815 2.652290 -160.880808 76.150838 -155.918462 2.061422 -2.430753 -0.348550 0.274100 0.176070 -0.070820 
-1.078860 16.744960 -1.587600 -8.278381 -19.531463 3.615041 -14.909991 13.512040 2.326267 24.634011 -0.330430 -7.771036 3.274225 4.702326 9.502669 -0.320676 4.843745 3.013110 0.020130 -0.082500 -0.143890 18.472787 -10.853469 2.826118 -4.095744 0.872469 -10.907606 10.335123 -5.055274 9.056804 0.111685 -3.783079 3.295394 0.197060 0.637700 0.005390 -4.084198 -1.381422 -6.918624 18.860892 -3.466733 2.158143 -15.633965 -2.191084 5.010267 12.035587 -6.418471 -7.259647 -10.495060 13.523144 28.097977 -1.704090 8.753440 5.807130 -20.475267 2.491221 0.259921 -52.854781 -0.670506 -2.072857 -13.434059 -15.570245 0.126545 -4.210733 3.006242 -0.091190 0.514790 -0.512620 0.144610 -4.033367 2.398543 3.523462 -15.343567 10.854160 5.272097 -125.200822 75.487086 -115.618424 2.236164 -1.435820 -0.353990 0.273880 0.180010 -0.075290 
-1.092050 16.735790 -1.589000 -8.445029 -20.095838 3.755287 -14.904070 13.420949 2.288716 24.762914 -0.420174 -7.254589 3.203500 4.711562 9.479276 -0.310364 4.854556 3.006275 0.024960 -0.075660 -0.140030 18.484262 -10.920958 2.839253 -4.129197 0.824543 -10.986826 10.571410 -5.129800 9.024860 0.094737 -3.822083 3.273567 0.194790 0.629160 0.017460 -4.108003 -1.087650 -6.910626 18.288350 -3.199627 2.120935 -14.787128 -2.246780 2.730792 12.407452 -6.803194 -5.371617 -10.574233 14.086563 28.838914 -1.662990 9.448790 5.995860 -19.180680 1.902979 2.395496 -53.110446 0.893411 -2.305104 -16.087268 -17.294183 0.572101 -4.183927 3.074271 -0.092850 0.514560 -0.504040 0.143760 -5.802003 3.667841 -2.692392 -13.965602 10.742144 -2.809983 105.248458 86.281193 116.842444 0.759722 2.461208 -0.342270 0.254560 0.175790 -0.075310 
-1.108150 16.732190 -1.594110 -8.753482 -20.873483 4.017555 -14.988220 13.539916 2.380287 25.171997 -0.466344 -6.983135 3.011194 4.820694 9.277555 -0.276965 4.943424 2.978329 0.017820 -0.085670 -0.132850 18.395762 -10.773469 2.832171 -3.880679 0.844594 -10.990778 10.646486 -5.094915 8.926455 0.104430 -3.765248 3.302737 0.182930 0.623890 0.012700 -3.836550 -1.556040 -7.029503 17.449028 -3.726071 2.611907 -13.381449 -2.446402 3.010424 12.432776 -6.905937 -6.149043 -10.994568 14.639787 28.851077 -1.895840 10.334250 6.293590 -19.112663 2.404337 1.997639 -52.962835 1.401429 -2.603479 -18.509970 -18.751005 1.020105 -4.167968 3.084578 -0.085970 0.514060 -0.499360 0.141620 -5.868835 3.613374 -1.095844 -16.108031 8.786962 -1.442542 -50.965063 86.711458 -37.537452 1.657084 -1.372058 -0.345830 0.251250 0.170820 -0.082800 
-1.115310 16.735240 -1.596540 -8.975237 -21.438239 4.124108 -15.042519 13.667970 2.432652 25.276103 -0.528196 -6.650161 3.099555 4.835808 9.190840 -0.235799 4.963030 2.969001 0.027280 -0.076180 -0.118860 18.333127 -10.658256 2.828071 -3.887725 0.805911 -10.892744 10.819937 -5.093378 8.792479 0.092602 -3.724143 3.314102 0.170210 0.593080 0.009430 -3.650712 -1.977065 -7.120547 16.947096 -4.159863 3.124874 -12.484651 -2.738623 2.789916 12.537162 -7.114952 -6.563088 -11.658625 14.917120 29.281456 -1.858160 10.785070 6.452850 -19.182493 2.654162 1.830338 -52.851611 1.714771 -2.715432 -19.909536 -18.966232 1.222310 -4.125642 3.108541 -0.071180 0.487570 -0.475250 0.143940 -5.895710 3.589109 -0.469310 -17.477637 7.571887 -0.872441 -44.271643 80.526688 -28.335292 1.816383 -1.743070 -0.330960 0.232530 0.151420 -0.083530 
-1.120460 16.740020 -1.601320 -9.191768 -22.209411 4.135467 -15.064736 13.754023 2.469708 25.332532 -0.573751 -6.076638 3.139613 4.862393 9.061927 -0.203007 4.989636 2.952629 0.026700 -0.079410 -0.104440 18.301605 -10.587045 2.825267 -4.097728 0.758249 -10.798147 11.154742 -5.169373 8.776872 0.079202 -3.707335 3.314064 0.151570 0.554230 0.003200 -3.563519 -2.252399 -7.182668 16.921192 -4.419021 3.540514 -12.196917 -2.907296 2.951245 12.542087 -7.220076 -7.056653 -12.177915 14.871849 29.814539 -1.914210 10.979040 6.254330 -19.052069 2.273040 1.912981 -52.536201 1.715976 -2.779020 -21.182614 -19.033689 1.385371 -4.086954 3.120141 -0.049360 0.456670 -0.450210 0.130370 -5.975541 4.014967 0.191173 -18.319369 5.666795 -0.657995 -40.446800 74.868197 -22.593656 1.903572 -1.871521 -0.318810 0.216270 0.145260 -0.091900 
-1.128560 16.745740 -1.608930 -9.267786 -22.861196 4.146619 -15.113002 13.863168 2.522209 25.281995 -0.640969 -5.589741 3.250736 4.846560 8.782241 -0.190137 5.010123 2.940881 0.020530 -0.096050 -0.086810 18.241351 -10.500591 2.821265 -4.327415 0.717875 -10.753221 11.378106 -5.204344 8.694804 0.075012 -3.665018 3.325953 0.133470 0.518090 -0.012440 -3.385416 -2.594307 -7.277267 16.276156 -4.612131 4.048992 -11.497651 -2.991295 2.795910 12.699970 -7.234101 -7.483602 -12.532150 14.661928 30.507804 -1.987820 10.985360 5.921720 -19.124961 2.059436 1.854164 -52.460853 1.690827 -2.777441 -21.789048 -18.799106 1.409409 -4.056113 3.100878 -0.015050 0.424330 -0.430390 0.111160 -6.071828 4.350744 0.807325 -18.971819 3.986760 -0.393308 -37.191164 69.558027 -18.079230 1.971933 -1.935114 -0.323130 0.214110 0.146700 -0.109920 
